<svg width="19" height="19" viewBox="0 0 19 19" fill="none" xmlns="http://www.w3.org/2000/svg">
<path d="M5.45465 11.3936C5.45465 13.126 4.71215 16.591 1.74219 16.591" stroke="#535353" stroke-width="1.5" stroke-linecap="round"/>
<path d="M12.8784 11.3936C12.8784 13.126 13.6209 16.591 16.5908 16.591" stroke="#535353" stroke-width="1.5" stroke-linecap="round"/>
<path d="M1 6.23975V2.63632C1 1.73261 1.73261 1 2.63632 1H15.6985C16.6022 1 17.3348 1.7326 17.3348 2.63632V6.23975C17.3348 6.68693 17.1518 7.11463 16.8283 7.42339L15.4755 8.71473C15.1711 9.00529 14.7665 9.16741 14.3457 9.16741H3.98915C3.56834 9.16741 3.16371 9.00529 2.85931 8.71473L1.50648 7.42339C1.18301 7.11463 1 6.68693 1 6.23975Z" stroke="#535353" stroke-width="1.5" stroke-linejoin="round"/>
<path d="M3.22729 6.19727H15.1072" stroke="#535353" stroke-width="1.5" stroke-linecap="round"/>
<path d="M12.1365 3.67285L15.1067 3.67285" stroke="#535353" stroke-width="1.5" stroke-linecap="round"/>
<path d="M9.16675 11.3936V17.334" stroke="#535353" stroke-width="1.5" stroke-linecap="round"/>
</svg>
