<svg width="19" height="18" viewBox="0 0 19 18" fill="none" xmlns="http://www.w3.org/2000/svg">
<path d="M13.7698 16.8749C13.7695 16.5766 13.6508 16.2907 13.4398 16.0799L7.68578 10.3259C7.51161 10.1518 7.37346 9.94505 7.2792 9.71754C7.18494 9.49002 7.13643 9.24616 7.13643 8.99989C7.13643 8.75362 7.18494 8.50976 7.2792 8.28225C7.37346 8.05473 7.51161 7.84801 7.68578 7.67389L13.4323 1.92364C13.6372 1.71146 13.7506 1.42729 13.748 1.13231C13.7455 0.837343 13.6272 0.555179 13.4186 0.346595C13.21 0.138011 12.9278 0.0196956 12.6329 0.0171324C12.3379 0.0145691 12.0537 0.127963 11.8415 0.332891L6.09503 6.07864C5.32235 6.85284 4.88839 7.90196 4.88839 8.99577C4.88839 10.0896 5.32235 11.1387 6.09503 11.9129L11.849 17.6669C12.0061 17.8241 12.2063 17.9313 12.4242 17.9748C12.6422 18.0184 12.8682 17.9964 13.0736 17.9117C13.2791 17.827 13.4549 17.6833 13.5788 17.4988C13.7027 17.3142 13.7691 17.0972 13.7698 16.8749V16.8749Z" fill="#535353"/>
</svg>
