<svg width="18" height="18" viewBox="0 0 18 18" fill="none" xmlns="http://www.w3.org/2000/svg">
<path d="M5 2.00004C5 1.73483 4.89464 1.48047 4.70711 1.29294C4.51957 1.1054 4.26522 1.00004 4 1.00004H2C1.73478 1.00004 1.48043 1.1054 1.29289 1.29294C1.10536 1.48047 1 1.73483 1 2.00004V16C1 16.2653 1.10536 16.5196 1.29289 16.7071C1.48043 16.8947 1.73478 17 2 17H4C4.26522 17 4.51957 16.8947 4.70711 16.7071C4.89464 16.5196 5 16.2653 5 16M5 2.00004V16M5 2.00004C5 1.73483 5.10536 1.48047 5.29289 1.29294C5.48043 1.1054 5.73478 1.00004 6 1.00004H8C8.26522 1.00004 8.51957 1.1054 8.70711 1.29294C8.89464 1.48047 9 1.73483 9 2.00004V16C9 16.2653 8.89464 16.5196 8.70711 16.7071C8.51957 16.8947 8.26522 17 8 17H6C5.73478 17 5.48043 16.8947 5.29289 16.7071C5.10536 16.5196 5 16.2653 5 16M1 5.00004H5M5 13H9M10 6.00004L14 5.00004M12 13L15.923 12.02M9.80302 1.56004L11.987 1.03004C12.549 0.895043 13.12 1.22004 13.269 1.76204L16.964 15.18C17.0292 15.4257 17.0003 15.6868 16.8831 15.9123C16.7658 16.1378 16.5686 16.3114 16.33 16.399L16.197 16.44L14.013 16.97C13.451 17.105 12.88 16.78 12.731 16.238L9.03602 2.82004C8.97083 2.57439 8.9997 2.31325 9.11697 2.08778C9.23424 1.8623 9.43147 1.68872 9.67002 1.60104L9.80302 1.56004Z" stroke="#535353" stroke-width="1.5" stroke-linecap="round" stroke-linejoin="round"/>
</svg>
