<svg width="20" height="17" viewBox="0 0 20 17" fill="none" xmlns="http://www.w3.org/2000/svg">
<path d="M11.9999 3C11.9999 2.46957 11.7892 1.96086 11.4142 1.58579C11.0391 1.21071 10.5304 1 9.99994 1C9.46951 1 8.9608 1.21071 8.58573 1.58579C8.21066 1.96086 7.99994 2.46957 7.99994 3C7.99994 4.667 8.66994 6 9.99994 7H9.99194M9.99194 7L17.9629 11.428C18.2749 11.6012 18.5348 11.8548 18.7157 12.1623C18.8967 12.4698 18.992 12.8202 18.9919 13.177V14C18.9919 14.5304 18.7812 15.0391 18.4062 15.4142C18.0311 15.7893 17.5224 16 16.9919 16H2.99194C2.46151 16 1.9528 15.7893 1.57773 15.4142C1.20266 15.0391 0.991943 14.5304 0.991943 14V13.177C0.991849 12.8202 1.08722 12.4698 1.26815 12.1623C1.44909 11.8548 1.709 11.6012 2.02094 11.428L9.99194 7Z" stroke="#535353" stroke-width="1.5" stroke-linecap="round" stroke-linejoin="round"/>
</svg>
