<svg width="20" height="15" viewBox="0 0 20 15" fill="none" xmlns="http://www.w3.org/2000/svg">
<path fill-rule="evenodd" clip-rule="evenodd" d="M0.881836 1.50332C0.881836 1.03388 1.26239 0.65332 1.73184 0.65332H18.9818C19.4513 0.65332 19.8318 1.03388 19.8318 1.50332C19.8318 1.97276 19.4513 2.35332 18.9818 2.35332H1.73184C1.26239 2.35332 0.881836 1.97276 0.881836 1.50332ZM0.881836 7.75167C0.881836 7.28223 1.26239 6.90167 1.73184 6.90167H14.1093C14.5787 6.90167 14.9593 7.28223 14.9593 7.75167C14.9593 8.22111 14.5787 8.60167 14.1093 8.60167H1.73184C1.26239 8.60167 0.881836 8.22111 0.881836 7.75167ZM1.73184 13.1501C1.26239 13.1501 0.881836 13.5306 0.881836 14.0001C0.881836 14.4695 1.26239 14.8501 1.73184 14.8501H18.9818C19.4513 14.8501 19.8318 14.4695 19.8318 14.0001C19.8318 13.5306 19.4513 13.1501 18.9818 13.1501H1.73184Z" fill="#535353"/>
</svg>
