<svg width="15" height="16" viewBox="0 0 15 16" fill="none" xmlns="http://www.w3.org/2000/svg">
<path d="M5.16601 12.151H4.86213C2.43109 12.151 1.21558 11.5432 1.21558 8.50444V5.46564C1.21558 3.03461 2.43109 1.81909 4.86213 1.81909H9.7242C12.1552 1.81909 13.3707 3.03461 13.3707 5.46564V8.50444C13.3707 10.9355 12.1552 12.151 9.7242 12.151H9.42032C9.23191 12.151 9.04958 12.2422 8.93411 12.3941L8.02247 13.6096C7.62135 14.1444 6.96497 14.1444 6.56385 13.6096L5.65221 12.3941C5.55497 12.2604 5.3301 12.151 5.16601 12.151Z" stroke="#BCBCBC" stroke-width="0.810345" stroke-miterlimit="10" stroke-linecap="round" stroke-linejoin="round"/>
<path d="M9.72193 7.28874H9.72739" stroke="#BCBCBC" stroke-width="1.4181" stroke-linecap="round" stroke-linejoin="round"/>
<path d="M7.29053 7.28882H7.29568" stroke="#BCBCBC" stroke-width="1.4181" stroke-linecap="round" stroke-linejoin="round"/>
<path d="M4.85865 7.28874H4.86411" stroke="#BCBCBC" stroke-width="1.4181" stroke-linecap="round" stroke-linejoin="round"/>
</svg>
