<svg width="5" height="9" viewBox="0 0 5 9" fill="none" xmlns="http://www.w3.org/2000/svg">
<path d="M0.279542 0.562796C0.279674 0.71193 0.339023 0.854908 0.444542 0.960296L3.32154 3.8373C3.40862 3.92436 3.4777 4.02772 3.52483 4.14148C3.57196 4.25523 3.59622 4.37716 3.59622 4.5003C3.59622 4.62343 3.57196 4.74536 3.52483 4.85912C3.4777 4.97288 3.40862 5.07624 3.32154 5.1633L0.448291 8.03842C0.345827 8.14451 0.28913 8.2866 0.290412 8.43409C0.291694 8.58157 0.350851 8.72265 0.455143 8.82695C0.559435 8.93124 0.700517 8.9904 0.848003 8.99168C0.995488 8.99296 1.13758 8.93626 1.24367 8.8338L4.11692 5.96092C4.50325 5.57383 4.72023 5.04926 4.72023 4.50236C4.72023 3.95546 4.50325 3.4309 4.11692 3.0438L1.23992 0.166796C1.16136 0.0881899 1.06128 0.0346134 0.95231 0.012828C0.843337 -0.00895742 0.730352 0.00202408 0.627613 0.0443872C0.524875 0.0867503 0.436986 0.158597 0.375039 0.250859C0.313092 0.343122 0.279862 0.451667 0.279542 0.562796V0.562796Z" fill="#FF6804"/>
</svg>
