<svg width="12" height="12" viewBox="0 0 12 12" fill="none" xmlns="http://www.w3.org/2000/svg">
<path d="M2.61088 11.8687C2.02755 11.8687 1.46172 11.6412 1.01255 11.2037C0.283383 10.4921 0.108383 9.44207 0.563383 8.53207L1.50838 6.64207C1.70672 6.2454 1.70672 5.76707 1.50838 5.36457L0.563383 3.46873C0.108383 2.55873 0.283383 1.50873 1.01255 0.797066C1.74172 0.0853997 2.79172 -0.0721002 3.69588 0.406233L10.4567 3.96457C11.215 4.36123 11.6875 5.1429 11.6875 6.0004C11.6875 6.8579 11.215 7.63957 10.4567 8.03623L3.69588 11.5946C3.34588 11.7812 2.97838 11.8687 2.61088 11.8687ZM2.61672 1.00707C2.21422 1.00707 1.86422 1.19373 1.62505 1.42707C1.26338 1.77707 1.00672 2.40123 1.34505 3.08373L2.29005 4.97373C2.61088 5.62123 2.61088 6.3854 2.29005 7.0329L1.34505 8.9229C1.00088 9.6054 1.26338 10.2296 1.62505 10.5796C1.98672 10.9296 2.61088 11.1804 3.28755 10.8246L10.0484 7.26623C10.5267 7.0154 10.8125 6.5429 10.8125 6.00623C10.8125 5.46957 10.5267 4.99707 10.0484 4.74623L3.28755 1.17623C3.05422 1.05373 2.82672 1.00707 2.61672 1.00707Z" fill="white"/>
</svg>
