<svg width="23" height="17" viewBox="0 0 23 17" fill="none" xmlns="http://www.w3.org/2000/svg">
<path d="M1 8.7002V12.2835C1 13.204 1.74619 13.9502 2.66667 13.9502H20.3333C21.2538 13.9502 22 13.204 22 12.2835V8.7002" stroke="#535353" stroke-width="1.5"/>
<path d="M20.2498 9.75V4C20.2498 2.34315 18.9066 1 17.2498 1H5.74976C4.0929 1 2.74976 2.34315 2.74976 4V9.75" stroke="#535353" stroke-width="1.5"/>
<mask id="path-3-inside-1_507_624" fill="white">
<rect x="4.50024" y="6.25" width="7" height="3.5" rx="0.5"/>
</mask>
<rect x="4.50024" y="6.25" width="7" height="3.5" rx="0.5" stroke="#535353" stroke-width="2" mask="url(#path-3-inside-1_507_624)"/>
<mask id="path-4-inside-2_507_624" fill="white">
<rect x="11.5" y="6.25" width="7" height="3.5" rx="0.5"/>
</mask>
<rect x="11.5" y="6.25" width="7" height="3.5" rx="0.5" stroke="#535353" stroke-width="2" mask="url(#path-4-inside-2_507_624)"/>
<line x1="3.49976" y1="14.125" x2="3.49976" y2="16.4" stroke="#535353" stroke-width="1.5"/>
<line x1="19.2498" y1="14.125" x2="19.2498" y2="16.4" stroke="#535353" stroke-width="1.5"/>
<line x1="1" y1="9.25" x2="22" y2="9.25" stroke="#535353"/>
</svg>
