<svg width="13" height="13" viewBox="0 0 13 13" fill="none" xmlns="http://www.w3.org/2000/svg">
<path d="M7.40174 1.08569L8.41385 3.22996C8.55251 3.52428 8.91515 3.81256 9.21945 3.86112L11.03 4.17563C12.1893 4.37429 12.4607 5.27536 11.6381 6.17753L10.2368 7.70561C10.0029 7.96172 9.86955 8.4621 9.94887 8.81196L10.3616 10.6885C10.686 12.1701 9.95878 12.7518 8.73878 11.9842L7.03452 10.9117C6.72416 10.7157 6.22082 10.7236 5.91693 10.9191L4.22609 12.0094C3.01572 12.7886 2.28011 12.218 2.58829 10.7336L2.98219 8.85509C3.05575 8.50395 2.92288 8.0051 2.68502 7.7532L1.26591 6.24438C0.433259 5.35563 0.694304 4.45158 1.84925 4.23592L3.65257 3.90057C3.95699 3.84126 4.31679 3.5562 4.44956 3.2574L5.43798 1.09606C5.96973 -0.0707844 6.8554 -0.0747786 7.40174 1.08569Z" fill="#FF6804"/>
</svg>
