<svg width="12" height="12" viewBox="0 0 12 12" fill="none" xmlns="http://www.w3.org/2000/svg">
<path d="M1 4.99989V6.99989C1 7.99989 1.5 8.49989 2.5 8.49989H3.215C3.4 8.49989 3.585 8.55489 3.745 8.64989L5.205 9.56489C6.465 10.3549 7.5 9.77989 7.5 8.29489V3.70489C7.5 2.21489 6.465 1.64489 5.205 2.43489L3.745 3.34989C3.585 3.44489 3.4 3.49989 3.215 3.49989H2.5C1.5 3.49989 1 3.99989 1 4.99989Z" stroke="#292D32" stroke-width="0.75"/>
<path d="M9 4C9.89 5.185 9.89 6.815 9 8" stroke="#292D32" stroke-width="0.75" stroke-linecap="round" stroke-linejoin="round"/>
<path d="M9.91504 2.75C11.36 4.675 11.36 7.325 9.91504 9.25" stroke="#292D32" stroke-width="0.75" stroke-linecap="round" stroke-linejoin="round"/>
</svg>
